<!-- <svg xmlns="http://www.w3.org/2000/svg" width="1611.198" height="428.325" viewBox="0 0 1611.198 428.325">
  <path id="Path_325" data-name="Path 325" d="M0,0S1.727,36.258,0,129.493c38.62,53.486,165.921,145.434,261.5,161.364,240.157,40.026,402.931-109.4,640.419-64.042s262.848,317.719,440.288,144.094,262.939-20.531,262.939-20.531,35.923-251.647-70.813-281S1254.154,93.394,1238.144,0Z" transform="translate(0.1 0.1)" fill="#3c3c84" stroke="rgba(255,255,255,0.49)" stroke-linecap="round" stroke-linejoin="round" stroke-width="0.2"/>
</svg> -->

<svg xmlns="http://www.w3.org/2000/svg" viewBox="0 0 1611.198 428.325">
  <path id="Path_325" data-name="Path 325" d="M0,0S1.727,36.258,0,129.493c38.62,53.486,165.921,145.434,261.5,161.364,240.157,40.026,402.931-109.4,640.419-64.042s262.848,317.719,440.288,144.094,262.939-20.531,262.939-20.531,35.923-251.647-70.813-281S1254.154,93.394,1238.144,0Z" transform="translate(0.1 0.1)" fill="rgba(255,255,255,0.99)" stroke="rgba(31,31,80,1.0)" stroke-linecap="round" stroke-linejoin="round" stroke-width="0.2"/>
</svg>
